# xmcd
#
# Track frame offsets: 
#        150
#        10412
#        18952
#        30187
#        39270
#        49510
#        61936
#        72894
#        84605
#        95223
#        105364
#        117085
#
# Disc length: 1732 seconds
#
# Revision: 1
# Processed by: cddbd v1.5.2PL0 Copyright (c) Steve Scherf et al.
# Submitted via: ExactAudioCopy v1.0b3
#
DISCID=8706c20c
DTITLE=Johnny Nash - I Got Rhythm
DYEAR=2005
DGENRE=Soul
TTITLE0=I Got Rhythm
TTITLE1=You're Driving Me Crazy
TTITLE2=Jeepers Creepers
TTITLE3='S Wonderful
TTITLE4=Baby, Won't You Please Come Home?
TTITLE5=Looking For A Girl
TTITLE6=And The Angels Sing
TTITLE7=I'm Beginning To See The Light
TTITLE8=I'm Forever Blowing Bubbles
TTITLE9=It's All Right With Me
TTITLE10=(You've Got) The Love I Love
TTITLE11=Baby, Baby, Baby
EXTD=YEAR: 1959
EXTT0=
EXTT1=
EXTT2=
EXTT3=
EXTT4=
EXTT5=
EXTT6=
EXTT7=
EXTT8=
EXTT9=
EXTT10=
EXTT11=
PLAYORDER=
